<?xml version="1.0" standalone="no"?>
<!DOCTYPE svg PUBLIC "-//W3C//DTD SVG 20010904//EN"
 "http://www.w3.org/TR/2001/REC-SVG-20010904/DTD/svg10.dtd">
<svg version="1.0" xmlns="http://www.w3.org/2000/svg"
 width="530.000000pt" height="526.000000pt" viewBox="0 0 530.000000 526.000000"
 preserveAspectRatio="xMidYMid meet">

<g transform="translate(0.000000,526.000000) scale(0.100000,-0.100000)"
fill="#000000" stroke="none">
<path d="M1465 4870 c-164 -18 -299 -133 -361 -309 l-24 -66 1 -1515 c0 -833
4 -1603 8 -1710 7 -186 8 -197 35 -248 56 -109 163 -184 287 -202 35 -5 115
-10 177 -10 l112 0 0 -70 c0 -62 3 -74 25 -95 34 -34 58 -31 149 19 l79 43 70
-39 c39 -22 87 -43 107 -45 31 -4 40 -1 58 22 18 23 22 41 22 101 l0 74 989 0
c907 0 990 1 1002 17 20 24 21 4005 1 4025 -11 11 -266 13 -1340 14 -730 1
-1359 -2 -1397 -6z m2615 -1720 l0 -1590 -1235 0 -1235 0 0 1590 0 1590 1235
0 1235 0 0 -1590z m-2615 1448 c8 -167 2 -3014 -7 -3023 -3 -3 -36 -13 -73
-20 -37 -8 -86 -25 -110 -39 -24 -13 -46 -21 -49 -18 -10 9 -6 2840 3 2939 12
115 43 179 116 234 44 33 86 56 106 58 4 1 10 -59 14 -131z m2615 -3408 l0
-240 -935 0 -935 0 0 129 c0 115 -2 131 -21 155 l-20 26 -213 0 c-164 0 -216
-3 -231 -14 -16 -12 -20 -32 -25 -144 -3 -72 -8 -133 -11 -137 -13 -12 -176
-17 -253 -7 -94 12 -145 43 -188 112 -67 108 -38 239 70 315 l44 30 396 5
c219 3 830 6 1360 8 l962 2 0 -240z m-2010 -218 c0 -82 -3 -151 -6 -155 -4 -3
-24 3 -45 13 -48 25 -80 25 -129 0 -22 -11 -42 -20 -45 -20 -3 0 -5 70 -5 155
l0 155 115 0 115 0 0 -148z"/>
<path d="M2725 4149 c-60 -33 -99 -67 -123 -108 l-27 -46 -3 -252 -3 -253
-283 0 c-336 0 -359 -4 -429 -79 -25 -27 -50 -65 -56 -87 -7 -24 -11 -159 -11
-350 0 -307 0 -311 23 -345 43 -64 141 -109 239 -109 l48 0 0 -195 c0 -107 3
-195 7 -195 4 0 91 84 194 186 154 154 192 187 225 194 21 5 110 10 196 10 86
0 179 5 206 10 63 14 118 60 148 124 23 49 24 61 24 262 0 248 3 274 35 274
33 0 61 -24 258 -219 l177 -176 0 185 c0 102 4 192 10 200 5 9 34 16 78 20
133 13 205 70 222 176 6 33 10 178 10 325 l0 265 -26 52 c-30 60 -92 118 -143
132 -51 14 -970 13 -996 -1z m992 -82 c18 -9 45 -34 60 -54 l28 -37 0 -295 c0
-332 -1 -339 -71 -382 -29 -18 -56 -24 -123 -27 -47 -2 -92 -9 -98 -14 -9 -8
-13 -48 -13 -139 0 -103 -3 -129 -14 -129 -7 0 -62 52 -121 115 -160 172 -131
159 -385 165 -192 4 -219 7 -255 26 -75 38 -78 56 -79 383 -1 284 -1 286 23
324 33 53 65 71 141 78 36 4 247 6 470 5 362 -1 408 -3 437 -19z m-1137 -702
c16 -58 78 -128 132 -150 30 -12 85 -19 182 -23 l139 -5 -5 -236 c-6 -261 -10
-279 -70 -323 -32 -22 -43 -23 -254 -28 -258 -6 -213 13 -390 -167 -67 -68
-127 -123 -133 -123 -9 0 -12 33 -9 129 2 94 0 133 -9 142 -7 7 -53 15 -108
19 -106 7 -134 21 -170 81 -19 32 -20 52 -20 319 0 277 1 286 23 327 40 76 59
80 413 82 l266 1 13 -45z"/>
<path d="M2797 3853 c-17 -17 -6 -54 19 -63 27 -11 793 -14 831 -4 12 3 25 15
29 27 14 45 -1 47 -451 47 -232 0 -425 -3 -428 -7z"/>
<path d="M2838 3633 c-26 -7 -34 -44 -12 -60 23 -16 514 -19 545 -3 28 15 24
49 -7 60 -25 10 -491 12 -526 3z"/>
<path d="M2007 3153 c-14 -13 -6 -53 12 -63 12 -6 116 -10 268 -10 269 0 288
3 281 51 l-3 24 -276 3 c-151 1 -278 -1 -282 -5z"/>
<path d="M2006 2917 c-24 -17 -14 -53 17 -61 39 -10 804 -7 832 4 21 8 26 16
23 38 l-3 27 -425 3 c-343 2 -429 0 -444 -11z"/>
</g>
</svg>
